<svg version="1.1" id="Chinese_Learning_Logo" xmlns="http://www.w3.org/2000/svg" xmlns:xlink="http://www.w3.org/1999/xlink" x="0px" y="0px"
	 viewBox="0 0 100 100" style="enable-background:new 0 0 100 100;" xml:space="preserve">
<style type="text/css">
	.st0{fill:#FFFFFF;}
</style>
<g>
	<!-- Традиционная верхняя горизонтальная отсечка / крыша (Капля/Точка) -->
	<path class="st0" d="M19.5,22.3c6.8-1.5,18.4-3.2,30.5-3.2c12.2,0,23.8,1.7,30.5,3.2c1.4,0.3,2.2-1.2,1.1-2.1
		C74.2,14.5,63.1,11.5,50,11.5c-13.1,0-24.2,3,31.6,8.7C17.3,21.1,18.1,22.6,19.5,22.3z"/>
	
	<!-- Левая откидная черта (Пье - 丿) -->
	<path class="st0" d="M47.8,27.5c-1.2,5.5-4.2,17.2-11.8,29.1C28.2,68.9,18.5,78.2,11.5,82c-1,0.5-0.7,2,0.4,2.2
		c5.3,0.8,13.1-0.2,19.2-4.8c7.8-5.9,16.2-18.3,21.4-31.3C53.8,44.9,50.2,34.1,47.8,27.5z"/>
	
	<!-- Правая откидная черта (На - 捺) -->
	<path class="st0" d="M52.5,28.2c1,4.9,3.5,14.5,9.6,25.2c6.5,11.4,15.9,21.6,26.4,27.3c1,0.5,1.8-0.7,1.1-1.6
		c-3.8-5.1-9.2-14.8-11.6-26.6c-2.4-11.6-2.3-26.2-2.1-33.1C75.9,18.2,51.5,23.1,52.5,28.2z"/>

	<!-- Соединительный каллиграфический штрих (Перекладина буквы А) -->
	<path class="st0" d="M31.2,58.5c4.1-0.6,12.5-1.5,18.8-1.5c6.2,0,13.4,0.9,17.5,1.5c1,0.1,1.5-1.1,0.7-1.7
		c-2.8-2.2-8.5-3.8-18.2-3.8c-9.8,0-15.1,1.6-17.6,3.8C31.7,57.4,32.2,58.6,31.2,58.5z"/>
</g>
</svg>
